<?xml version="1.0" standalone="no"?>
<!DOCTYPE svg PUBLIC "-//W3C//DTD SVG 20010904//EN"
 "http://www.w3.org/TR/2001/REC-SVG-20010904/DTD/svg10.dtd">
<svg version="1.0" xmlns="http://www.w3.org/2000/svg"
 width="512.000000pt" height="512.000000pt" viewBox="0 0 512.000000 512.000000"
 preserveAspectRatio="xMidYMid meet">
<metadata>
Created by potrace 1.14, written by Peter Selinger 2001-2017
</metadata>
<g transform="translate(0.000000,512.000000) scale(0.100000,-0.100000)"
fill="#000000" stroke="none">
<path d="M2818 3863 c-16 -19 -738 -2502 -738 -2539 0 -31 28 -50 96 -68 79
-21 107 -20 126 2 16 18 738 2502 738 2538 0 31 -28 50 -96 68 -79 21 -107 20
-126 -1z"/>
<path d="M1272 3068 c-249 -249 -460 -465 -468 -480 -13 -25 -13 -31 0 -55 8
-16 219 -232 468 -480 396 -396 457 -453 484 -453 23 0 43 13 91 63 33 34 64
73 68 86 6 21 -36 67 -386 417 l-394 394 394 394 c350 350 392 396 386 417 -4
13 -35 52 -68 87 -48 49 -68 62 -91 62 -27 0 -88 -57 -484 -452z"/>
<path d="M3273 3458 c-33 -35 -64 -74 -68 -87 -6 -21 36 -67 386 -417 l394
-394 -394 -394 c-350 -350 -392 -396 -386 -417 4 -13 35 -52 68 -86 48 -50 68
-63 91 -63 27 0 88 57 484 453 249 248 460 464 468 480 13 24 13 30 0 55 -8
15 -219 231 -468 480 -396 395 -457 452 -484 452 -23 0 -43 -13 -91 -62z"/>
</g>
</svg>
